<?xml version="1.0" encoding="UTF-8"?>
<svg width="220" height="48" viewBox="0 0 220 48" fill="none" xmlns="http://www.w3.org/2000/svg" role="img" aria-label="WhalePulse logo">
  <defs>
    <linearGradient id="g1" x1="0%" x2="100%" y1="0%" y2="0%">
      <stop offset="0%" stop-color="#00e5ff" />
      <stop offset="100%" stop-color="#00b4a0" />
    </linearGradient>
    <filter id="dropGlow" x="-50%" y="-50%" width="200%" height="200%">
      <feDropShadow dx="0" dy="0" stdDeviation="6" flood-color="#00e5ff" flood-opacity="0.6" />
    </filter>
  </defs>

  <!-- Icon (left) -->
  <g transform="translate(0,0)" filter="url(#dropGlow)">
    <path d="M8 30c6-9 16-15 24-15 3.5 0 6.3 1 8.4 2.3 1.8 1.1 3.6 2.2 5.7 2.2 2.1 0 4.2-1.4 6.3-3.1 2.1-1.7 5-3.9 8.5-3.9 0 0-2.8 6-5.8 8  -3 2-6 2.5-9 2.5-2 0-4 .7-6 .9-2 .2-4 .8-6 0.8-4 0-8-2.4-12-5.6z" fill="url(#g1)"/>
    <path d="M28 26 L36 26 L39 20 L43 34 L47 22 L50 26 L60 26" stroke="#ffffff" stroke-width="1.8" stroke-linecap="round" stroke-linejoin="round" opacity="0.95"/>
    <path d="M72 22 L78 18 L74 28 L78 32 L72 28" fill="url(#g1)" opacity="0.98"/>
  </g>

  <!-- Wordmark (right) -->
  <g transform="translate(80,9)">
    <text x="0" y="24" font-family="Orbitron, sans-serif" font-weight="700" font-size="20" letter-spacing="0.08em">
      <tspan fill="#e8f4f8">Whale</tspan>
      <tspan fill="#00e5ff">Pulse</tspan>
    </text>
  </g>
</svg>
